<svg version="1.1" id="Layer_1" xmlns="http://www.w3.org/2000/svg" x="0" y="0" viewBox="0 0 260 129" xml:space="preserve"><style>.st0{fill:none}.st1{fill:#00aeef}.st2{fill:#005baa}</style><path d="M8.2 88.6h2v4.6h-2v-4.6zm0 8.7h2V121h-2V97.3zM37.8 97.3h2v3.6h.1c.9-2.1 3.3-4.1 7-4.1 3.9 0 6.9 1.9 6.9 6.4V121h-2v-17.1c0-4.2-2.1-5.7-5.5-5.7-4.2 0-6.6 3.4-6.6 7.5V121h-2V97.3zM82 98.8h-3.7v-1.5H82v-3.9c0-2.7 1.2-4.7 4.8-4.7.6 0 1.4 0 2.1.1v1.5c-.5-.1-1-.1-1.7-.1-1.7 0-3.2.7-3.2 3.1v4h4.6v1.5H84V121h-2V98.8zM117.7 121.6c-7.3 0-9.1-5.6-9.1-12.4 0-6.8 1.8-12.4 9.4-12.4 7.3 0 9.1 5.6 9.1 12.4 0 6.8-1.8 12.4-9.4 12.4zm.2-23.3c-5.3 0-7 4-7 10.9 0 6.8 1.7 10.8 7 10.8s7-4 7-10.8c0-6.9-1.8-10.9-7-10.9zM159.3 99.7h-.1l-5.4 21.3h-2.5l-5.9-23.7h2.2l4.9 21.3h.1l5.4-21.3h2.5l5.2 21.3h.1l4.9-21.3h2.2L167 121h-2.5l-5.2-21.3zM209.7 118.1c0 1.1.5 1.6 1.2 1.6.5 0 .9 0 1.3-.2v1.4c-.4.3-1.2.4-2.1.4-.8 0-2.4-.7-2.4-2.6v-1.5h-.1c-.8 2.5-3.5 4.4-7.2 4.4-4.8 0-6.9-3-6.9-6.6 0-3.6 1.7-5.6 5.6-6.5l5.9-1.4c2.4-.5 2.7-1.5 2.7-3.5 0-4.3-2.3-5.2-5.3-5.2-4.6 0-6 2.5-6 5.8h-2c0-3.2 1.4-7.3 7.8-7.3 6.1 0 7.5 2.9 7.5 6.3v14.9zm-2-10.9h-.1c-.7.9-1.4 1.1-3.5 1.6l-4.1 1c-3.2.8-4.4 2.4-4.4 5.2 0 3.1 1.6 5.1 5.1 5.1 4.7 0 6.9-3.2 6.9-7.9v-5zM249.5 97.3h2.2l-8.5 27.3c-1 3.3-2.9 4.4-6.1 4.4-.7 0-1.4 0-2.1-.1v-1.5c.7 0 1.1.1 1.7.1 2.6 0 3.6-.6 4.6-3.7l.8-2.5-8.1-24h2.2l6.9 21.3h.1l6.3-21.3z"/><path class="st0" d="M129.1 19.7c-12.6 0-20.3 7.7-20.3 21.6 0 13.8 7.4 21.6 20.4 21.6 10.2 0 16.9-4.8 18.7-14.5h9.9c-.3-2.3-.4-4.7-.4-7.2 0-2.9.3-5.7.7-8.3h-10.6c-1.3-8.4-6.9-13.2-18.4-13.2zM205.2 17.2c-12.7 0-18.5 7.2-20 15.6h40c-1.5-8.4-7.3-15.6-20-15.6zM44.1 48.3c-5.5.7-7.8 3.1-7.8 7.7 0 5.9 4.8 9.3 12.1 9.3 15.5 0 24.2-6.5 24.2-16.9v-4.7c-2 .7-5.3 1.4-10.3 2.1l-18.2 2.5z"/><path class="st1" d="M80.3 41.3c0-13.5 4.5-23.7 12.6-30.6-7.5-7.6-21.3-9.6-38-9.6-21.1 0-40.6 3.2-43.2 25.9h27c1.3-6.5 6.1-9.6 16.1-9.6 11.8 0 17.1 2.8 17.1 8.2 0 3.9-1.1 5.6-8.2 6.2l-26.9 2C17.5 35.2 7 41.4 7 58.8c0 15.9 11.7 23.8 33.8 23.8 13.6 0 24.7-2 32.5-10.1.1 2.1.5 4.8 1.4 7h27c-.4-.8-.7-1.5-1-2.2-13.1-6.3-20.4-18.1-20.4-36zm-7.7 7.2c0 10.4-8.7 16.9-24.2 16.9-7.3 0-12.1-3.4-12.1-9.3 0-4.7 2.3-7.1 7.8-7.7L62.3 46c5-.7 8.3-1.4 10.3-2.1v4.6z"/><path class="st1" d="M148 48.3c-1.8 9.7-8.5 14.5-18.7 14.5-13 0-20.4-7.8-20.4-21.6s7.6-21.6 20.3-21.6c11.5 0 17.1 4.8 18.3 13.1h10.6c1.3-7.9 4.5-14.5 9.4-19.6C159.4 3.8 145.7 0 128.8 0 113.6 0 101.4 3.6 93 10.7c3.8 3.8 6 9.1 6 16.3v38.6c0 5.3.4 8.3 1.8 11.6 7.5 3.6 16.9 5.3 28.1 5.3 18.4 0 30.5-4.6 38.1-13-4.9-5.3-7.9-12.4-9-21.2h-10z"/><path class="st1" d="M98.9 27.1c0-7.2-2.2-12.5-6-16.3-8.1 6.9-12.6 17-12.6 30.6 0 17.9 7.2 29.7 20.3 36-1.4-3.3-1.8-6.3-1.8-11.6V27.1z"/><path class="st2" d="M98.9 27.1c0-7.2-2.2-12.5-6-16.3-8.1 6.9-12.6 17-12.6 30.6 0 17.9 7.2 29.7 20.3 36-1.4-3.3-1.8-6.3-1.8-11.6V27.1z"/><path class="st1" d="M253 46.1C253 14.2 234.6 0 205.1 0c-16.1 0-29.2 4.5-37.6 13.2 4.2 4.9 6.9 11.3 7.8 19.6h-17.1c-.4 2.6-.7 5.4-.7 8.3 0 2.5.2 4.9.4 7.2h18.6c-1.6 8.6-4.7 15.7-9.6 21.2 8.1 8.8 21.3 13 39 13 29.4 0 42.6-13.1 45.9-25.8h-28.5c-3.2 4.5-7.7 8.6-16.3 8.6-13.9 0-20.3-7.2-21.7-17H253v-2.2zm-67.8-13.3c1.5-8.5 7.3-15.6 20-15.6s18.5 7.2 20 15.6h-40z"/><path class="st1" d="M175.2 32.8c-.8-8.3-3.5-14.7-7.8-19.6-4.9 5.1-8.1 11.7-9.4 19.6h17.2z"/><path class="st2" d="M175.2 32.8c-.8-8.3-3.5-14.7-7.8-19.6-4.9 5.1-8.1 11.7-9.4 19.6h17.2z"/><path class="st1" d="M176.5 48.3h-18.6c1.1 8.8 4.1 15.9 9 21.2 4.9-5.5 8-12.6 9.6-21.2z"/><path class="st2" d="M176.5 48.3h-18.6c1.1 8.8 4.1 15.9 9 21.2 4.9-5.5 8-12.6 9.6-21.2z"/></svg>